<svg width="14" height="14" viewBox="0 0 14 14" fill="none" xmlns="http://www.w3.org/2000/svg">
<path d="M12.6469 6.5661L8.43361 2.52206C8.31334 2.40662 8.15304 2.34326 7.98212 2.34326C7.81101 2.34326 7.65081 2.40672 7.53054 2.52206L7.14801 2.88931C7.02784 3.00457 6.96163 3.15852 6.96163 3.32266C6.96163 3.48671 7.02784 3.64585 7.14801 3.7611L9.60596 6.12547H1.79695C1.44486 6.12547 1.16667 6.39003 1.16667 6.72806V7.24726C1.16667 7.58528 1.44486 7.87652 1.79695 7.87652H9.63384L7.14811 10.2541C7.02793 10.3695 6.96173 10.5193 6.96173 10.6834C6.96173 10.8474 7.02793 10.9993 7.14811 11.1147L7.53064 11.4808C7.65091 11.5962 7.81111 11.6591 7.98222 11.6591C8.15314 11.6591 8.31344 11.5954 8.4337 11.4799L12.6469 7.43598C12.7675 7.32018 12.8338 7.1656 12.8333 7.00127C12.8337 6.8364 12.7675 6.68172 12.6469 6.5661Z" fill="#282828"/>
</svg>
