<svg width="20" height="20" viewBox="0 0 20 20" fill="none" xmlns="http://www.w3.org/2000/svg">
<path d="M16.4225 6.07758L12.2558 1.91091C12.1 1.75425 11.8875 1.66675 11.6667 1.66675H5.00001C4.08084 1.66675 3.33334 2.41425 3.33334 3.33341V16.6667C3.33334 17.5859 4.08084 18.3334 5.00001 18.3334H15C15.9192 18.3334 16.6667 17.5859 16.6667 16.6667V6.66675C16.6667 6.44508 16.5792 6.23342 16.4225 6.07758ZM12.5 4.51175L13.8217 5.83341H12.5V4.51175ZM5.00001 16.6667V3.33341H10.8333V5.83341C10.8333 6.75258 11.5808 7.50008 12.5 7.50008H15L14.9975 16.6667H5.00001Z" fill="#282828"/>
</svg>
