<svg width="20" height="16" viewBox="0 0 20 16" fill="none" xmlns="http://www.w3.org/2000/svg">
<path d="M19 10C18.447 10 18 10.447 18 11V13C18 13.552 17.552 14 17 14H3C2.448 14 2 13.552 2 13V11C2 10.447 1.553 10 1 10C0.447 10 0 10.447 0 11V13C0 14.654 1.346 16 3 16H17C18.654 16 20 14.654 20 13V11C20 10.447 19.553 10 19 10Z" fill="#282828"/>
<path d="M9.29295 11.707C9.48795 11.902 9.74395 12 9.99995 12C10.2559 12 10.5119 11.902 10.7069 11.707L15.7069 6.707C15.9929 6.421 16.0789 5.991 15.9239 5.617C15.7699 5.243 15.4039 5 14.9999 5H12.9999V3C12.9999 1.346 11.6539 0 9.99995 0C8.34595 0 6.99995 1.346 6.99995 3V5H4.99995C4.59595 5 4.22995 5.243 4.07595 5.617C3.92095 5.991 4.00695 6.421 4.29295 6.707L9.29295 11.707ZM8.99995 3C8.99995 2.448 9.44795 2 9.99995 2C10.5519 2 10.9999 2.448 10.9999 3V6C10.9999 6.553 11.4469 7 11.9999 7H12.5859L9.99995 9.586L7.41394 7H7.99995C8.55295 7 8.99995 6.553 8.99995 6V3Z" fill="#282828"/>
</svg>
