<svg width="21" height="20" viewBox="0 0 21 20" fill="none" xmlns="http://www.w3.org/2000/svg">
<path d="M15.9554 5.06782C15.3676 4.48004 14.6 4.18369 13.8268 4.16751C13.0131 4.1497 12.1946 4.44439 11.5793 5.06053L6.09804 10.5418C5.29812 11.3449 4.85767 12.4104 4.85767 13.5423V15.3558C4.85767 15.8036 5.21957 16.1655 5.66729 16.1655H7.48086C8.61274 16.1655 9.67822 15.725 10.4822 14.9243L15.9561 9.45032C17.1625 8.24322 17.1625 6.2758 15.9554 5.06782ZM9.33822 13.7787C8.8419 14.2734 8.18124 14.5463 7.48093 14.5463H6.47694V13.5423C6.47694 12.842 6.74979 12.1813 7.24366 11.6858L10.8571 8.07239L12.9508 10.1661L9.33822 13.7787ZM14.8105 8.30637L14.0956 9.02129L12.0019 6.92758L12.7168 6.21269C13.2949 5.6346 14.2341 5.63623 14.8105 6.21269C15.387 6.78992 15.387 7.7291 14.8105 8.30637Z" fill="#282828"/>
</svg>
