<svg width="21" height="20" viewBox="0 0 21 20" fill="none" xmlns="http://www.w3.org/2000/svg">
<path d="M18.9134 9.58409C18.7659 9.32909 15.2626 3.33325 10.6909 3.33325C6.11926 3.33325 2.61593 9.32909 2.46843 9.58409C2.32009 9.84159 2.32009 10.1583 2.46843 10.4158C2.61593 10.6708 6.11926 16.6666 10.6909 16.6666C15.2626 16.6666 18.7659 10.6708 18.9134 10.4158C19.0609 10.1583 19.0609 9.84159 18.9134 9.58409ZM10.6909 14.9999C7.67759 14.9999 4.99176 11.2599 4.16926 9.99492C5.26259 8.28825 7.93676 4.99992 10.6909 4.99992C13.7043 4.99992 16.3901 8.73992 17.2126 10.0049C16.1193 11.7116 13.4451 14.9999 10.6909 14.9999Z" fill="#282828"/>
<path d="M10.691 6.6665C8.85267 6.6665 7.35767 8.1615 7.35767 9.99984C7.35767 11.8382 8.85267 13.3332 10.691 13.3332C12.5293 13.3332 14.0243 11.8382 14.0243 9.99984C14.0243 8.1615 12.5293 6.6665 10.691 6.6665ZM10.691 11.6665C9.77183 11.6665 9.02433 10.919 9.02433 9.99984C9.02433 9.08067 9.77183 8.33317 10.691 8.33317C11.6102 8.33317 12.3577 9.08067 12.3577 9.99984C12.3577 10.919 11.6102 11.6665 10.691 11.6665Z" fill="#282828"/>
</svg>
