<svg width="20" height="20" viewBox="0 0 20 20" fill="none" xmlns="http://www.w3.org/2000/svg">
<path d="M15.8925 4.10758C14.3183 2.53341 12.2258 1.66675 10 1.66675C7.77335 1.66675 5.68085 2.53341 4.10751 4.10758C0.859181 7.35675 0.859181 12.6442 4.10751 15.8934C5.68085 17.4667 7.77335 18.3334 10 18.3334C12.2258 18.3334 14.3183 17.4667 15.8925 15.8926C19.1417 12.6442 19.1417 7.35675 15.8925 4.10758ZM15.2625 14.0842L14.0642 12.8867C15.29 11.1601 15.29 8.83925 14.0642 7.11258L15.2625 5.91425C17.1242 8.31175 17.1242 11.6892 15.2625 14.0842ZM6.66835 10.0001C6.66835 9.10925 7.01501 8.27175 7.64335 7.64341C8.27168 7.01508 9.10835 6.66925 10 6.66925C10.8917 6.66925 11.7283 7.01508 12.3567 7.64341C13.6567 8.94342 13.6567 11.0584 12.3567 12.3576C11.7283 12.9859 10.8917 13.3317 10 13.3317C9.10835 13.3317 8.27168 12.9859 7.64335 12.3576C7.01501 11.7284 6.66835 10.8917 6.66835 10.0001ZM14.0842 4.73758L12.8933 5.92841C12.0533 5.33008 11.0533 5.00342 9.99918 5.00342C8.94501 5.00342 7.94501 5.33091 7.10501 5.92841L5.91585 4.73758C7.07918 3.83091 8.50001 3.33341 10 3.33341C11.4992 3.33341 12.92 3.83091 14.0842 4.73758ZM4.73751 5.91592L5.92835 7.10675C5.32918 7.94591 5.00168 8.94592 5.00168 10.0001C5.00168 11.0542 5.32918 12.0551 5.92751 12.8942L4.73668 14.0851C2.87585 11.6892 2.87585 8.31175 4.73751 5.91592ZM5.91585 15.2626L7.10668 14.0726C7.94668 14.6709 8.94668 14.9976 10.0008 14.9976C11.055 14.9976 12.055 14.6701 12.895 14.0726L14.0858 15.2626C12.92 16.1692 11.4992 16.6667 10 16.6667C8.50001 16.6667 7.08001 16.1692 5.91585 15.2626Z" fill="#282828"/>
</svg>
