<svg width="20" height="20" viewBox="0 0 20 20" fill="none" xmlns="http://www.w3.org/2000/svg">
<path d="M9.99999 1.66675C5.40499 1.66675 1.66666 5.40508 1.66666 10.0001C1.66666 14.5951 5.40499 18.3334 9.99999 18.3334C14.595 18.3334 18.3333 14.5951 18.3333 10.0001C18.3333 5.40508 14.595 1.66675 9.99999 1.66675ZM9.99999 16.6667C6.32416 16.6667 3.33332 13.6759 3.33332 10.0001C3.33332 6.32425 6.32416 3.33341 9.99999 3.33341C13.6758 3.33341 16.6667 6.32425 16.6667 10.0001C16.6667 13.6759 13.6758 16.6667 9.99999 16.6667Z" fill="#00CB14"/>
<path d="M7.90697 14.1668C7.28681 14.1668 6.74418 13.6596 6.66666 13.0799C6.66666 13.0074 6.66666 13.0074 6.66666 12.9349V12.4277C6.66666 11.4857 7.59689 10.6886 8.29456 10.1089L8.60464 9.96393L8.4496 9.819L8.37208 9.74654C7.67441 9.16683 6.74418 8.36973 6.74418 7.50016V6.99292C6.74418 6.34074 7.28681 5.8335 7.90697 5.8335H12.0155C12.7132 5.8335 13.3333 6.34074 13.3333 6.99292V7.4277C13.3333 8.36973 12.4031 9.16683 11.7054 9.74654L11.3953 9.96393L11.6279 10.1813C12.3256 10.761 13.3333 11.5581 13.3333 12.5002V12.9349C13.3333 13.5871 12.7907 14.1668 12.093 14.1668H7.90697ZM9.84495 10.1813C9.76743 10.4712 9.61239 10.6886 9.37983 10.906L9.14728 11.1234C8.8372 11.3407 8.52712 11.5581 8.29456 11.848C7.98449 12.2103 7.90697 12.4277 7.90697 12.4277V12.8625H12.093V12.4277C12.093 12.3552 12.0155 12.2103 11.7054 11.848C11.4729 11.6306 11.1628 11.3407 10.8527 11.1234L10.6201 10.906C10.3876 10.6886 10.2325 10.4712 10.2325 10.1813V9.96393V9.74654C10.2325 9.45668 10.3876 9.23929 10.6201 9.0219L10.8527 8.80451C11.1628 8.58712 11.4729 8.36973 11.7054 8.07987C12.0155 7.71755 12.093 7.57263 12.093 7.50016V6.99292H7.90697V7.4277C7.90697 7.50016 7.98449 7.71755 8.29456 8.00741C8.52712 8.29726 8.8372 8.58712 9.14728 8.80451L9.37983 9.0219C9.61239 9.23929 9.76743 9.45668 9.84495 9.74654V9.96393V10.1813Z" fill="#00CB14"/>
</svg>
