<svg width="21" height="20" viewBox="0 0 21 20" fill="none" xmlns="http://www.w3.org/2000/svg">
<path d="M16.7188 16.3912H4.8267C4.0551 16.3912 3.42763 15.7098 3.42763 14.8721C3.42763 14.0344 4.05513 13.353 4.8267 13.353H6.22577C6.61189 13.353 6.9253 13.0128 6.9253 12.5935C6.9253 12.1743 6.61189 11.834 6.22577 11.834H4.8267C3.28353 11.834 2.02856 13.1966 2.02856 14.8721C2.02856 16.5476 3.28353 17.9102 4.8267 17.9102H16.7188C17.1049 17.9102 17.4183 17.5699 17.4183 17.1507C17.4183 16.7314 17.1049 16.3912 16.7188 16.3912Z" fill="#282828"/>
<path d="M17.9135 2.94285C16.8698 1.81115 15.1713 1.80963 14.1255 2.94285L13.0552 4.10494C13.0419 4.1171 13.0258 4.12166 13.0132 4.13533C13.0006 4.14901 12.9964 4.16647 12.9852 4.18089L9.39591 8.07803C8.70478 8.82996 8.32422 9.82951 8.32422 10.8921V12.5935C8.32422 13.0127 8.63763 13.353 9.02375 13.353H10.5907C11.5694 13.353 12.4899 12.9398 13.1839 12.1886L17.9128 7.0542C18.9558 5.92099 18.9558 4.07606 17.9135 2.94285ZM12.1954 11.1139C11.7666 11.5779 11.1965 11.8339 10.5907 11.8339H9.72329V10.8921C9.72329 10.2344 9.95902 9.61533 10.3857 9.15049L13.5148 5.75311L15.3238 7.71724L12.1954 11.1139ZM16.9236 5.98022L16.3129 6.6433L14.5039 4.67916L15.1139 4.01686C15.6126 3.47607 16.4248 3.47685 16.9229 4.01686C17.421 4.55839 17.421 5.43943 16.9236 5.98022Z" fill="#282828"/>
</svg>
