<svg width="18" height="14" viewBox="0 0 18 14" fill="none" xmlns="http://www.w3.org/2000/svg">
<path d="M16.5001 8.66675C16.0392 8.66675 15.6667 9.03925 15.6667 9.50008V11.1667C15.6667 11.6267 15.2934 12.0001 14.8334 12.0001H3.16675C2.70675 12.0001 2.33341 11.6267 2.33341 11.1667V9.50008C2.33341 9.03925 1.96091 8.66675 1.50008 8.66675C1.03925 8.66675 0.666748 9.03925 0.666748 9.50008V11.1667C0.666748 12.5451 1.78841 13.6667 3.16675 13.6667H14.8334C16.2117 13.6667 17.3334 12.5451 17.3334 11.1667V9.50008C17.3334 9.03925 16.9609 8.66675 16.5001 8.66675Z" fill="#282828"/>
<path d="M8.41099 0.577663C8.57349 0.415163 8.78682 0.333496 9.00016 0.333496C9.21349 0.333496 9.42682 0.415163 9.58932 0.577663L13.756 4.74433C13.9943 4.98266 14.066 5.341 13.9368 5.65266C13.8085 5.96433 13.5035 6.16683 13.1668 6.16683H11.5002V7.8335C11.5002 9.21183 10.3785 10.3335 9.00016 10.3335C7.62182 10.3335 6.50016 9.21183 6.50016 7.8335V6.16683H4.83349C4.49682 6.16683 4.19182 5.96433 4.06349 5.65266C3.93432 5.341 4.00599 4.98266 4.24432 4.74433L8.41099 0.577663ZM8.16682 7.8335C8.16682 8.2935 8.54016 8.66683 9.00016 8.66683C9.46016 8.66683 9.83349 8.2935 9.83349 7.8335V5.3335C9.83349 4.87266 10.206 4.50016 10.6668 4.50016H11.1552L9.00016 2.34516L6.84516 4.50016H7.33349C7.79432 4.50016 8.16682 4.87266 8.16682 5.3335V7.8335Z" fill="#282828"/>
</svg>
