<svg width="6" height="10" viewBox="0 0 6 10" fill="none" xmlns="http://www.w3.org/2000/svg">
<path d="M5.71014 4.2894C5.65938 4.23882 5.60432 4.19614 5.54638 4.15901L1.67072 0.283485C1.29262 -0.0944357 0.6792 -0.094615 0.300924 0.283664C-0.0773516 0.661764 -0.0773517 1.27501 0.300924 1.65347L3.63868 4.99126L0.283705 8.34644C-0.0945714 8.72454 -0.0945715 9.33761 0.283704 9.71625C0.472931 9.90565 0.72099 10 0.968511 10C1.21603 10 1.46427 9.90565 1.65332 9.71625L5.54638 5.82279C5.60432 5.78566 5.65974 5.74297 5.71014 5.69239C5.90349 5.49904 5.99676 5.24434 5.9921 4.9909C5.99676 4.73746 5.90349 4.48294 5.71014 4.2894Z" fill="#282828"/>
</svg>
